<?xml version="1.0" encoding="iso-8859-1"?>
<!-- Generator: Adobe Illustrator 19.0.0, SVG Export Plug-In . SVG Version: 6.00 Build 0)  -->
<svg version="1.1" id="Layer_1" xmlns="http://www.w3.org/2000/svg" xmlns:xlink="http://www.w3.org/1999/xlink" x="0px" y="0px"
	 viewBox="0 0 512.002 512.002" style="enable-background:new 0 0 512.002 512.002;" xml:space="preserve">
<circle style="fill:#FF6262;" cx="256.001" cy="256" r="256"/>
<path style="fill:#FF0F27;" d="M511.634,269.71l-63.414-63.245l-26.148,4.711L261.493,51.41l-6.641,151.721L63.982,362.651
	l144.146,144.862c15.51,2.934,31.51,4.489,47.873,4.489C392.786,512,504.509,404.72,511.634,269.71z"/>
<path style="fill:#383632;" d="M256.001,206.869c-4.284,0-7.758-3.474-7.758-7.758V56.889c0-4.284,3.474-7.758,7.758-7.758
	s7.758,3.474,7.758,7.758v142.222C263.758,203.395,260.285,206.869,256.001,206.869z"/>
<path style="fill:#282623;" d="M256.001,49.131c-0.197,0-0.381,0.043-0.574,0.059v157.622c0.193,0.014,0.378,0.059,0.574,0.059
	c4.284,0,7.758-3.474,7.758-7.758V56.889C263.758,52.605,260.285,49.131,256.001,49.131z"/>
<path style="fill:#E5E5E5;" d="M430.832,369.778H81.168c-13.409,0-24.278-10.869-24.278-24.278V223.391
	c0-13.409,10.869-24.278,24.278-24.278h349.665c13.409,0,24.28,10.869,24.28,24.278V345.5
	C455.112,358.909,444.243,369.778,430.832,369.778z"/>
<path style="fill:#D3D3D3;" d="M430.832,199.111H255.425v170.667h175.407c13.409,0,24.279-10.869,24.279-24.278V223.391
	C455.112,209.98,444.243,199.111,430.832,199.111z"/>
<g>
	<path style="fill:#383632;" d="M118.304,229.279c0-4.284-3.474-7.758-7.758-7.758H95.031c-4.284,0-7.758,3.474-7.758,7.758v15.515
		c0,4.284,3.474,7.758,7.758,7.758h15.515c4.284,0,7.758-3.474,7.758-7.758V229.279z"/>
	<path style="fill:#383632;" d="M179.589,229.279c0-4.284-3.474-7.758-7.758-7.758h-15.515c-4.284,0-7.758,3.474-7.758,7.758v15.515
		c0,4.284,3.474,7.758,7.758,7.758h15.515c4.284,0,7.758-3.474,7.758-7.758V229.279z"/>
	<path style="fill:#383632;" d="M233.116,221.522h-15.515c-4.284,0-7.758,3.474-7.758,7.758v15.515c0,4.284,3.474,7.758,7.758,7.758
		h15.515c4.284,0,7.758-3.474,7.758-7.758v-15.515C240.874,224.996,237.4,221.522,233.116,221.522z"/>
	<path style="fill:#383632;" d="M140.973,268.067h-15.515c-4.284,0-7.758,3.474-7.758,7.758v15.515c0,4.284,3.474,7.758,7.758,7.758
		h15.515c4.284,0,7.758-3.474,7.758-7.758v-15.515C148.731,271.541,145.259,268.067,140.973,268.067z"/>
	<path style="fill:#383632;" d="M202.258,268.067h-15.515c-4.284,0-7.758,3.474-7.758,7.758v15.515c0,4.284,3.474,7.758,7.758,7.758
		h15.515c4.284,0,7.758-3.474,7.758-7.758v-15.515C210.016,271.541,206.542,268.067,202.258,268.067z"/>
	<path style="fill:#383632;" d="M263.543,268.067h-15.515c-4.284,0-7.758,3.474-7.758,7.758v15.515c0,4.284,3.474,7.758,7.758,7.758
		h15.515c4.284,0,7.758-3.474,7.758-7.758v-15.515C271.301,271.541,267.827,268.067,263.543,268.067z"/>
</g>
<g>
	<path style="fill:#282623;" d="M263.543,268.067h-8.116v31.03h8.116c4.284,0,7.758-3.474,7.758-7.758v-15.515
		C271.301,271.541,267.827,268.067,263.543,268.067z"/>
	<path style="fill:#282623;" d="M302.158,229.279c0-4.284-3.474-7.758-7.758-7.758h-15.515c-4.284,0-7.758,3.474-7.758,7.758v15.515
		c0,4.284,3.474,7.758,7.758,7.758h15.515c4.284,0,7.758-3.474,7.758-7.758V229.279z"/>
	<path style="fill:#282623;" d="M363.443,229.279c0-4.284-3.474-7.758-7.758-7.758h-15.515c-4.284,0-7.758,3.474-7.758,7.758v15.515
		c0,4.284,3.474,7.758,7.758,7.758h15.515c4.284,0,7.758-3.474,7.758-7.758V229.279z"/>
	<path style="fill:#282623;" d="M416.971,221.522h-15.515c-4.284,0-7.758,3.474-7.758,7.758v15.515c0,4.284,3.474,7.758,7.758,7.758
		h15.515c4.284,0,7.758-3.474,7.758-7.758v-15.515C424.728,224.996,421.254,221.522,416.971,221.522z"/>
	<path style="fill:#282623;" d="M324.828,268.067h-15.515c-4.284,0-7.758,3.474-7.758,7.758v15.515c0,4.284,3.474,7.758,7.758,7.758
		h15.515c4.284,0,7.758-3.474,7.758-7.758v-15.515C332.585,271.541,329.112,268.067,324.828,268.067z"/>
	<path style="fill:#282623;" d="M386.113,268.067h-15.515c-4.284,0-7.758,3.474-7.758,7.758v15.515c0,4.284,3.474,7.758,7.758,7.758
		h15.515c4.284,0,7.758-3.474,7.758-7.758v-15.515C393.87,271.541,390.397,268.067,386.113,268.067z"/>
</g>
<g>
	<rect x="170.668" y="328.404" style="fill:#383632;" width="170.667" height="10.343"/>
	<path style="fill:#383632;" d="M341.334,346.505H170.668c-4.284,0-7.758-3.474-7.758-7.758v-10.343
		c0-4.284,3.474-7.758,7.758-7.758h170.667c4.284,0,7.758,3.474,7.758,7.758v10.343
		C349.092,343.031,345.618,346.505,341.334,346.505z"/>
</g>
<path style="fill:#282623;" d="M341.334,320.646h-85.907v25.859h85.907c4.284,0,7.758-3.474,7.758-7.758v-10.343
	C349.092,324.12,345.618,320.646,341.334,320.646z"/>
<g>
</g>
<g>
</g>
<g>
</g>
<g>
</g>
<g>
</g>
<g>
</g>
<g>
</g>
<g>
</g>
<g>
</g>
<g>
</g>
<g>
</g>
<g>
</g>
<g>
</g>
<g>
</g>
<g>
</g>
</svg>
