<?xml version="1.0" encoding="iso-8859-1"?>
<!-- Generator: Adobe Illustrator 19.0.0, SVG Export Plug-In . SVG Version: 6.00 Build 0)  -->
<svg version="1.1" id="Layer_1" xmlns="http://www.w3.org/2000/svg" xmlns:xlink="http://www.w3.org/1999/xlink" x="0px" y="0px"
	 viewBox="0 0 512 512" style="enable-background:new 0 0 512 512;" xml:space="preserve">
<circle style="fill:#366695;" cx="256" cy="256" r="256"/>
<path style="fill:#273B7A;" d="M119.811,335.874l70.968,70.968l0.145,4.529l98.276,98.49C414.899,493.58,512,386.132,512,256
	c0-5.697-0.205-11.345-0.572-16.949L393.194,119.949L119.811,335.874z"/>
<rect x="227.556" y="312.889" style="fill:#9B9B9B;" width="56.889" height="85.333"/>
<rect x="254.569" y="312.889" style="fill:#686868;" width="29.88" height="85.333"/>
<path style="fill:#D1D1D1;" d="M132.884,341.333h246.231c10.552,0,19.106-8.554,19.106-19.106V132.886
	c0.002-10.554-8.552-19.108-19.106-19.108H132.884c-10.552,0-19.106,8.554-19.106,19.108v189.342
	C113.778,332.779,122.332,341.333,132.884,341.333z"/>
<path style="fill:#A0A0A0;" d="M379.114,113.778H254.562v227.556h124.552c10.552,0,19.106-8.554,19.106-19.106V132.884
	C398.222,122.332,389.668,113.778,379.114,113.778z"/>
<rect x="128.431" y="131.448" style="fill:#FFFFFF;" width="255.138" height="159.461"/>
<rect x="254.569" y="131.448" style="fill:#E2E2E2;" width="129.005" height="159.461"/>
<path style="fill:#D1D1D1;" d="M198.177,414.384h115.645c5.673,0,10.271-4.599,10.271-10.271v-13.503
	c0-5.673-4.599-10.271-10.271-10.271H198.177c-5.673,0-10.273,4.599-10.273,10.271v13.503
	C187.906,409.784,192.505,414.384,198.177,414.384z"/>
<path style="fill:#A0A0A0;" d="M313.822,380.337h-59.259v34.047h59.259c5.673,0,10.271-4.599,10.271-10.271v-13.503
	C324.094,384.936,319.495,380.337,313.822,380.337z"/>
<rect x="142.222" y="170.667" style="fill:#71E2EF;" width="227.556" height="56.889"/>
<rect x="254.569" y="170.667" style="fill:#38C6D9;" width="115.214" height="56.889"/>
<rect x="142.222" y="240.054" style="fill:#B7E3E5;" width="85.333" height="28.444"/>
<path style="fill:#4F4F4F;" d="M304.485,217.038l-44.925-12.252c-2.313-0.631-4.437,1.491-3.806,3.806l12.252,44.925
	c0.626,2.296,3.5,3.058,5.182,1.376l8.051-8.051c1.21-1.21,3.172-1.21,4.384,0l31.07,31.07c1.21,1.21,3.172,1.21,4.384,0
	l7.808-7.808c1.21-1.21,1.21-3.172,0-4.384l-31.07-31.07c-1.21-1.21-1.21-3.172,0-4.384l8.051-8.051
	C307.543,220.538,306.781,217.664,304.485,217.038z"/>
<g>
</g>
<g>
</g>
<g>
</g>
<g>
</g>
<g>
</g>
<g>
</g>
<g>
</g>
<g>
</g>
<g>
</g>
<g>
</g>
<g>
</g>
<g>
</g>
<g>
</g>
<g>
</g>
<g>
</g>
</svg>
