<?xml version="1.0" encoding="iso-8859-1"?>
<!-- Generator: Adobe Illustrator 19.0.0, SVG Export Plug-In . SVG Version: 6.00 Build 0)  -->
<svg version="1.1" id="Capa_1" xmlns="http://www.w3.org/2000/svg" xmlns:xlink="http://www.w3.org/1999/xlink" x="0px" y="0px"
	 viewBox="0 0 301.421 301.421" style="enable-background:new 0 0 301.421 301.421;" xml:space="preserve">
<g id="XMLID_479_">
	<g id="XMLID_481_">
		<path id="XMLID_37_" style="fill:#006DF0;" d="M38.076,38.076c7.075,7.075,16.769,16.769,28.284,28.284
			c35.147-35.147,92.132-35.147,127.279,0c35.147,35.147,35.147,92.132,0,127.279c42.095,42.095,80.517,80.517,98.995,98.995
			c11.716-11.716,11.715-30.711,0-42.427l-51.962-51.962c30.964-50.117,24.718-116.703-18.749-160.17
			C171.156-12.692,88.844-12.693,38.076,38.076z"/>
		<path id="XMLID_36_" style="fill:#0052B4;" d="M66.36,193.639c-35.148-35.147-35.148-92.132,0-127.279
			C54.845,54.846,45.151,45.151,38.076,38.076c-50.768,50.768-50.768,133.08,0,183.848c43.467,43.467,110.053,49.712,160.17,18.749
			l51.962,51.962c11.716,11.715,30.711,11.716,42.427,0c-18.478-18.478-56.9-56.9-98.995-98.995
			C158.492,228.787,101.507,228.787,66.36,193.639z"/>
	</g>
	<g id="XMLID_482_">
		<rect id="XMLID_483_" x="85" y="100" style="fill:#FFDA44;" width="30" height="80"/>
		<rect id="XMLID_484_" x="145" y="100" style="fill:#FF5023;" width="30" height="80"/>
		<rect id="XMLID_486_" x="115" y="70" style="fill:#FF9811;" width="30" height="110"/>
	</g>
</g>
<g>
</g>
<g>
</g>
<g>
</g>
<g>
</g>
<g>
</g>
<g>
</g>
<g>
</g>
<g>
</g>
<g>
</g>
<g>
</g>
<g>
</g>
<g>
</g>
<g>
</g>
<g>
</g>
<g>
</g>
</svg>
