<?xml version="1.0" encoding="iso-8859-1"?>
<!-- Generator: Adobe Illustrator 19.0.0, SVG Export Plug-In . SVG Version: 6.00 Build 0)  -->
<svg version="1.1" id="Layer_1" xmlns="http://www.w3.org/2000/svg" xmlns:xlink="http://www.w3.org/1999/xlink" x="0px" y="0px"
	 viewBox="0 0 512 512" style="enable-background:new 0 0 512 512;" xml:space="preserve">
<circle style="fill:#00CC96;" cx="255.947" cy="256" r="255.947"/>
<path style="fill:#07B587;" d="M510.546,228.995c0.935,8.829,1.454,17.867,1.454,27.008c0,130.778-98.162,238.705-224.785,254.078
	L152.073,374.939l181.262-220.007l24.307,22.956l75.517-26.384l77.387,77.387v0.105H510.546z"/>
<path style="fill:#FFD630;" d="M100.966,258.287l152.385-97.539c2.285-1.454,12.362-7.167,14.958-7.687
	c6.856-1.766,84.139,3.116,97.85,3.635c13.92,4.051,17.867,12.465,15.165,23.684c-5.194,12.569-33.24,84.969-37.603,90.372
	c-1.454,2.181-10.907,8.829-13.192,10.283l-152.384,97.54c-9.349,5.921-21.813,3.22-27.735-6.129l-55.365-86.528
	c-5.921-9.349-3.22-21.813,6.129-27.735L100.966,258.287z M327.31,174.149c9.453-6.025,22.022-3.324,28.046,6.129
	c6.025,9.453,3.324,22.022-6.129,28.046c-9.453,6.025-22.022,3.324-28.046-6.129C315.157,192.742,317.858,180.173,327.31,174.149z"
	/>
<path style="fill:#F5BE18;" d="M100.966,258.287l12.777-8.206l205.568-48.095c4.155,9.868,15.373,14.958,25.554,11.322
	c8.414-3.013,13.607-11.011,13.503-19.528c0.208-1.766,0.208-3.532,0-5.401l23.164-18.282c0.727,3.116,0.519,6.544-0.415,10.283
	l-1.039,2.493c-7.895,11.115-49.34,85.593-54.846,89.852c-1.973,1.766-12.569,6.129-15.165,7.063l-170.459,60.663
	c-3.013,1.039-6.233,1.351-9.245,1.039l-23.58-36.772l-12.153-40.2c1.558-2.493,3.635-4.674,6.233-6.336L100.966,258.287z"/>
<path style="fill:#E84F4F;" d="M91.721,195.027l170.459-60.663c2.597-0.935,13.607-4.259,16.205-4.051
	c7.063-0.208,81.23,22.022,94.422,25.657c12.569,7.167,14.646,16.205,9.453,26.488c-7.895,11.115-51.522,75.309-57.027,79.568
	c-1.973,1.766-12.569,6.129-15.165,7.063l-170.459,60.663c-10.387,3.739-21.917-1.766-25.657-12.153l-34.488-96.811
	c-3.739-10.387,1.766-21.917,12.153-25.657L91.721,195.027z M331.154,164.073c10.595-3.739,22.23,1.766,25.969,12.362
	c3.739,10.596-1.766,22.23-12.362,25.969c-10.595,3.739-22.23-1.766-25.969-12.362C315.053,179.447,320.558,167.813,331.154,164.073
	z"/>
<path style="fill:#F7F7F8;" d="M117.379,273.973l12.673-6.025c2.389,4.155,5.09,6.752,8.206,7.998
	c3.116,1.247,6.752,1.039,10.907-0.415c4.363-1.558,7.271-3.635,8.829-6.233c1.558-2.597,1.87-5.194,1.039-7.583
	c-0.519-1.558-1.558-2.805-2.805-3.532c-1.351-0.832-3.324-1.143-5.817-1.143c-1.766,0-5.714,0.311-11.841,0.935
	c-7.895,0.727-13.711,0.311-17.555-1.247c-5.401-2.285-9.038-6.025-10.907-11.322c-1.247-3.428-1.351-6.959-0.519-10.596
	c0.831-3.635,2.805-6.856,5.921-9.764c3.116-2.805,7.167-5.194,12.258-6.959c8.31-3.013,15.373-3.324,20.879-1.143
	c5.609,2.181,9.557,6.336,11.945,12.465l-13.4,5.297c-1.766-3.22-3.947-5.297-6.336-6.129c-2.389-0.831-5.505-0.623-9.245,0.727
	c-3.843,1.351-6.648,3.324-8.31,5.714c-1.039,1.558-1.247,3.22-0.623,4.882c0.519,1.558,1.766,2.701,3.428,3.324
	c2.181,0.831,6.856,0.831,14.023,0.104c7.063-0.831,12.569-0.935,16.205-0.311c3.739,0.519,6.959,1.973,9.764,4.155
	c2.805,2.285,4.986,5.505,6.44,9.66c1.351,3.843,1.558,7.791,0.623,11.945c-0.935,4.052-3.013,7.687-6.336,10.7
	c-3.324,3.012-7.895,5.505-13.711,7.583c-8.414,3.013-15.685,3.324-21.606,1.039C125.585,285.814,120.91,281.14,117.379,273.973z
	 M190.922,272.207l-23.788-66.895l49.548-17.659l4.051,11.322l-35.941,12.777l5.297,14.854l33.448-11.945l4.051,11.322
	l-33.448,11.945l6.44,18.074l37.291-13.296l4.051,11.322l-50.795,18.074L190.922,272.207z M238.705,217.985
	c-2.389-6.856-3.428-12.881-3.013-18.282c0.311-3.947,1.247-7.791,2.909-11.426s3.843-6.648,6.544-9.141
	c3.532-3.22,7.998-5.817,13.503-7.791c9.868-3.532,18.802-3.22,26.904,0.727c8.102,4.051,14.127,11.53,17.97,22.437
	c3.843,10.803,3.947,20.36,0.208,28.566c-3.739,8.206-10.491,14.023-20.255,17.555c-9.972,3.532-18.906,3.324-27.008-0.623
	C248.469,236.059,242.548,228.683,238.705,217.985z M252.416,212.582c2.701,7.583,6.544,12.673,11.426,15.373
	c4.882,2.701,10.076,3.013,15.478,1.143c5.401-1.973,9.141-5.401,11.219-10.596c2.077-5.09,1.766-11.53-1.039-19.321
	c-2.701-7.687-6.44-12.777-11.219-15.373c-4.674-2.597-9.868-2.909-15.478-0.935c-5.609,1.974-9.349,5.505-11.426,10.491
	c-2.077,5.09-1.662,11.426,1.039,19.113L252.416,212.582L252.416,212.582z"/>
<path style="fill:#EBECEC;" d="M347.154,174.844l81.59-29.033c1.147-0.408,2.408,0.191,2.816,1.338l3.21,9.021
	c0.408,1.147-0.191,2.407-1.338,2.816l-81.59,29.033c-1.147,0.408-2.408-0.191-2.816-1.338l-3.21-9.021
	C345.408,176.513,346.007,175.252,347.154,174.844z"/>
<path style="fill:#C5C6C6;" d="M433.158,151.608L433.158,151.608l-85.801,30.539l0,0c1.247,3.635,5.297,5.505,8.934,4.259
	L428.9,160.54C432.535,159.294,434.405,155.244,433.158,151.608z"/>
<g>
</g>
<g>
</g>
<g>
</g>
<g>
</g>
<g>
</g>
<g>
</g>
<g>
</g>
<g>
</g>
<g>
</g>
<g>
</g>
<g>
</g>
<g>
</g>
<g>
</g>
<g>
</g>
<g>
</g>
</svg>
